# xmcd CD database file
#
# Track frame offsets:
#	150
#	11963
#	23945
#	38533
#	46671
#	60340
#	67615
#	78734
#	93416
#	102079
#	112992
#	118149
#	130937
#	147550
#	154788
#	167088
#	184451
#
# Disc length: 2767 seconds
#
# Revision: 0
# Processed by: cddbd v1.5.2PL0 Copyright (c) Steve Scherf et al.
# Submitted via: CDex 1.51
#
DISCID=de0acd11
DTITLE=Julian O. M. Eilenberger - Solo Piano I
DYEAR=2014
DGENRE=New Age
TTITLE0=Beginn
TTITLE1=Meer
TTITLE2=So hoch, so weit, als meine Seele...
TTITLE3=episch
TTITLE4=Schnee
TTITLE5=Übermut tut gut
TTITLE6=Sommerabend
TTITLE7=berührt
TTITLE8=Mit dir
TTITLE9=Morgentau
TTITLE10=Geh auf's Ganze
TTITLE11=Schwerer Traum
TTITLE12=Ohne Anfang
TTITLE13=Eines Nachmittags im Herbst
TTITLE14=Schön, dass es dich gibt
TTITLE15=Es ist schon spät
TTITLE16=Abschied
EXTD=YEAR: 2014
EXTT0=
EXTT1=
EXTT2=
EXTT3=
EXTT4=
EXTT5=
EXTT6=
EXTT7=
EXTT8=
EXTT9=
EXTT10=
EXTT11=
EXTT12=
EXTT13=
EXTT14=
EXTT15=
EXTT16=
PLAYORDER=
